<?xml version="1.0" encoding="UTF-8" standalone="no"?>
<!-- Created with Inkscape (http://www.inkscape.org/) -->

<svg
   version="1.1"
   id="svg1"
   width="2742.8667"
   height="965.22668"
   viewBox="0 0 2742.8667 965.22668"
   sodipodi:docname="Faerder_kommune_logo_CMYK_u-slagord.eps"
   xmlns:inkscape="http://www.inkscape.org/namespaces/inkscape"
   xmlns:sodipodi="http://sodipodi.sourceforge.net/DTD/sodipodi-0.dtd"
   xmlns="http://www.w3.org/2000/svg"
   xmlns:svg="http://www.w3.org/2000/svg">
  <defs
     id="defs1" />
  <sodipodi:namedview
     id="namedview1"
     pagecolor="#ffffff"
     bordercolor="#000000"
     borderopacity="0.25"
     inkscape:showpageshadow="2"
     inkscape:pageopacity="0.0"
     inkscape:pagecheckerboard="0"
     inkscape:deskcolor="#d1d1d1">
    <inkscape:page
       x="0"
       y="0"
       inkscape:label="1"
       id="page1"
       width="2742.8667"
       height="965.22668"
       margin="0"
       bleed="0" />
  </sodipodi:namedview>
  <g
     id="g1"
     inkscape:groupmode="layer"
     inkscape:label="1">
    <g
       id="group-R5">
      <path
         id="path2"
         d="m 1670.67,7012.46 c 1383.92,-3216.18 390.06,-5976.22 390.06,-5976.22 0,0 724.68,1465.94 2555,1208.16 641.47,3645.22 -2945.06,4768.06 -2945.06,4768.06"
         style="fill:#ffffff;fill-opacity:1;fill-rule:nonzero;stroke:none"
         transform="matrix(0.13333333,0,0,-0.13333333,0,965.22667)" />
      <path
         id="path3"
         d="m 5876.57,7239.16 -14.32,-1170.35 v 0 C 5841.77,5078.4 5660.66,4097.89 5326.01,3165.5 v 0 C 4807.11,1924.92 3982.54,835.898 2929.18,-0.0117188 v 0 C 1812.2,797.379 961.074,1912.49 486.551,3200.24 l -0.946,2.31 v 0 C 174.48,4129.01 11.7383,5098.82 3.36719,6076.09 L 0,7239.16 H 2.625 5876.57"
         style="fill:#4782cb;fill-opacity:1;fill-rule:nonzero;stroke:none"
         transform="matrix(0.13333333,0,0,-0.13333333,0,965.22667)" />
      <path
         id="path4"
         d="m 1670.67,7012.46 c 1383.92,-3216.18 390.06,-5976.22 390.06,-5976.22 0,0 724.68,1465.94 2555,1208.16 641.47,3645.22 -2945.06,4768.06 -2945.06,4768.06"
         style="fill:#ffffff;fill-opacity:1;fill-rule:nonzero;stroke:none"
         transform="matrix(0.13333333,0,0,-0.13333333,0,965.22667)" />
      <path
         id="path5"
         d="m 7855.23,5644.74 h 559.91 l -14.46,-190.62 c -3.04,-40.78 -29.02,-70.02 -70.02,-70.02 l -475.43,0.11 v -483.34 -254.42 c -85.26,0 -229.35,-9.48 -272.83,-9.48 -33.99,0 -71.38,29.58 -71.38,29.58 v 234.32 1526.69 h 1042.11 c 0,0 27.89,-37.49 27.89,-71.36 0,-29.15 -18.51,-121.63 -25.51,-189.28 h -700.28 v -522.18"
         style="fill:#656263;fill-opacity:1;fill-rule:nonzero;stroke:none"
         transform="matrix(0.13333333,0,0,-0.13333333,0,965.22667)" />
      <path
         id="path6"
         d="m 9444.71,5983.75 c -2.93,56.13 -2.03,125.36 0.56,192.44 -21.34,-77.47 -46.19,-157.43 -71.48,-214.91 l -274.86,-597.96 h 378.31 z m 951.79,-1337.3 h -810.41 c -33.87,0 -72.83,29.02 -72.83,29.02 l -23.38,445.62 h -502.3 l -218.29,-474.64 c -94.52,0 -211.86,-9.48 -251.84,-9.48 -33.88,0 -70.69,29.58 -70.69,29.58 l 798.75,1621.66 c 30.04,63.35 16.93,139.35 16.93,139.35 h 1117.96 c 0,0 30,-37.49 31.7,-71.36 1.5,-29.15 -12.2,-121.63 -15.6,-189.28 h -616.96 l 25.53,-487.63 h 526.33 l -9.9,-175.04 c -2.4,-40.76 -25.4,-70.01 -66.3,-70.01 h -437.38 l 27.68,-527.26 h 534.9 c 0,0 30,-37.39 31.7,-71.38 1.5,-29.13 -12.2,-121.5 -15.6,-189.15"
         style="fill:#656263;fill-opacity:1;fill-rule:nonzero;stroke:none"
         transform="matrix(0.13333333,0,0,-0.13333333,0,965.22667)" />
      <path
         id="path7"
         d="m 12231,4788.4 c 0,0 5.9,-183.05 -213,-183.05 -99.5,0 -269.2,37.49 -439.2,323.31 l -308.9,519.13 c -29.9,55 -6.4,86.5 39.5,99.61 236.1,61.43 412.5,164.53 412.5,376.61 0,189.95 -141,271.6 -369.3,271.6 -68.2,0 -152.7,-7.12 -223.2,-14.69 l 0.1,-1280.05 v -254.42 c -85.3,0 -229.5,-9.48 -272.8,-9.48 -34,0 -71.4,29.58 -71.4,29.58 v 234.32 1501.28 c 0,0 248.2,50.82 530.3,50.82 456.7,0 744.5,-131.56 744.5,-480.28 0,-334.73 -273.5,-493.61 -448.4,-551.32 19.5,-21.8 41.8,-48 63.6,-76.57 l 198.6,-261.99 c 192.4,-253.53 357.2,-294.41 357.2,-294.41 h -0.1"
         style="fill:#656263;fill-opacity:1;fill-rule:nonzero;stroke:none"
         transform="matrix(0.13333333,0,0,-0.13333333,0,965.22667)" />
      <path
         id="path8"
         d="m 12836.5,6172.46 1.3,-1275.87 c 0,0 164.8,-9.38 245.4,-9.38 461.3,0 692.9,358.66 692.9,725.12 0,374.25 -243.1,574.92 -694.5,574.92 -111,0 -245.1,-14.79 -245.1,-14.79 z m 1291.8,-551.89 c 0,-575.71 -435.7,-994.68 -1146.3,-994.68 -152.9,0 -488.4,20.56 -488.4,20.56 l -1.3,1781.11 c 0,0 309.9,19.77 504.5,19.77 782.6,0 1131.5,-315.75 1131.5,-826.76"
         style="fill:#656263;fill-opacity:1;fill-rule:nonzero;stroke:none"
         transform="matrix(0.13333333,0,0,-0.13333333,0,965.22667)" />
      <path
         id="path9"
         d="m 15466.4,6427.56 c 0,0 27.9,-37.49 27.9,-71.36 0,-29.15 -18.5,-121.63 -25.5,-189.28 h -688.7 v -489.09 h 598.2 l -18.8,-172.89 c -4.7,-42.69 -30.2,-69.34 -73.2,-69.34 h -506.2 v -528.62 h 704 c 0,0 27.9,-37.39 27.9,-71.38 0,-29.01 -18.5,-121.5 -25.5,-189.15 h -979.2 c -34,0 -71.4,29.02 -71.4,29.02 v 1752.09 h 1030.5"
         style="fill:#656263;fill-opacity:1;fill-rule:nonzero;stroke:none"
         transform="matrix(0.13333333,0,0,-0.13333333,0,965.22667)" />
      <path
         id="path10"
         d="m 17291,4788.4 c 0,0 5.9,-183.05 -213,-183.05 -99.5,0 -269.2,37.49 -439.2,323.31 l -308.9,519.13 c -29.8,55 -6.4,86.5 39.5,99.61 236.1,61.43 412.5,164.53 412.5,376.61 0,189.95 -141,271.6 -369.3,271.6 -68.2,0 -152.7,-7.12 -223.2,-14.69 l 0.1,-1280.05 v -254.42 c -85.3,0 -229.5,-9.48 -272.8,-9.48 -34,0 -71.4,29.58 -71.4,29.58 v 234.32 1501.28 c 0,0 248.2,50.82 530.3,50.82 456.7,0 744.5,-131.56 744.5,-480.28 0,-334.73 -273.5,-493.61 -448.4,-551.32 19.5,-21.8 41.8,-48 63.6,-76.57 l 198.6,-261.99 c 192.5,-253.53 357.2,-294.41 357.2,-294.41 h -0.1"
         style="fill:#656263;fill-opacity:1;fill-rule:nonzero;stroke:none"
         transform="matrix(0.13333333,0,0,-0.13333333,0,965.22667)" />
      <path
         id="path11"
         d="m 8818.07,2061.28 c -105.71,0 -266.97,47.77 -431.27,290.45 l -385.55,575.94 c -19.98,31.96 -21.79,62.79 -1.02,94.3 l 599.89,861.53 c 102.42,0 244.94,8.93 289.77,8.93 34,0 71.71,-29.14 71.71,-29.14 l -562.5,-754.14 c -22.59,-31.62 -56.35,-68.77 -85.15,-98.81 23.72,-22.92 52.07,-52.74 75.78,-85.27 l 289.66,-383.61 c 189.6,-251.61 354.14,-297.12 354.14,-297.12 0,0 3.05,-183.06 -215.46,-183.06 z M 7511.02,3883.5 c 85.27,0 229.37,9.38 272.85,9.38 33.99,0 71.36,-29.48 71.36,-29.48 V 2102.39 c -85.26,0 -229.47,-9.49 -272.83,-9.49 -33.99,0 -71.38,29.59 -71.38,29.59 V 3883.5"
         style="fill:#656263;fill-opacity:1;fill-rule:nonzero;stroke:none"
         transform="matrix(0.13333333,0,0,-0.13333333,0,965.22667)" />
      <path
         id="path12"
         d="m 9947.69,3656.29 c -332.91,0 -524.21,-269.56 -524.21,-621.45 0,-408.58 242.57,-700.5 592.22,-703.77 326.9,-3.17 525.7,252.63 525.7,616.71 0,422.58 -253.2,708.62 -593.71,708.62 z m 942.71,-634.43 c 0,-557.54 -396,-944.88 -939.54,-944.88 -518.8,0 -876.45,352.9 -876.45,882.76 0,560.24 400.11,949.17 942.09,949.17 521.5,0 873.9,-361.83 873.9,-887.05"
         style="fill:#656263;fill-opacity:1;fill-rule:nonzero;stroke:none"
         transform="matrix(0.13333333,0,0,-0.13333333,0,965.22667)" />
      <path
         id="path13"
         d="m 13234.4,2102.39 c -104.8,0 -234.2,-9.38 -280,-9.38 -34,0 -71.5,29.59 -71.5,29.59 l -165.2,1061.42 c -8.7,54.09 -9.8,146.36 -8.2,233.08 -14.2,-79.83 -31.6,-163.51 -49.4,-215.12 l -387.8,-1099.59 c -89.3,0 -177.4,-9.38 -211.3,-9.38 -33.9,0 -71.4,29.48 -71.4,29.48 L 11615,3204.13 c -13.5,42 -24.4,107.05 -32.7,170.41 -2.6,-61.33 -6.5,-123.1 -12.4,-160.14 l -174.1,-1112.01 c -89.5,0 -200.6,-9.49 -238.9,-9.49 -34,0 -71.5,29.59 -71.5,29.59 l 270.1,1647.29 c 10.1,59.63 -6.4,113.72 -6.4,113.72 98.9,0 236.6,8.93 266.9,8.93 33.9,0 71.5,-29.03 71.5,-29.03 l 426.6,-1089.88 c 24.6,-60.75 42.6,-145.56 55,-222.8 15.3,80.86 34,167.81 52.1,219.3 l 367.3,1021.33 c 14.4,40.54 10.7,92.15 10.7,92.15 84.3,0 230.7,8.93 274.6,8.93 33.9,0 71.4,-29.03 71.4,-29.03 l 289.2,-1761.01"
         style="fill:#656263;fill-opacity:1;fill-rule:nonzero;stroke:none"
         transform="matrix(0.13333333,0,0,-0.13333333,0,965.22667)" />
      <path
         id="path14"
         d="m 15597.8,2102.39 c -104.9,0 -234.3,-9.38 -280,-9.38 -34,0 -71.5,29.59 -71.5,29.59 l -165.2,1061.42 c -8.7,54.09 -9.8,146.36 -8.2,233.08 -14.3,-79.83 -31.7,-163.51 -49.4,-215.12 l -387.8,-1099.59 c -89.3,0 -177.4,-9.38 -211.3,-9.38 -34,0 -71.5,29.48 -71.5,29.48 l -374.6,1081.64 c -13.4,42 -24.3,107.05 -32.6,170.41 -2.6,-61.33 -6.5,-123.1 -12.4,-160.14 l -174.1,-1112.01 c -89.5,0 -200.6,-9.49 -238.9,-9.49 -34,0 -71.5,29.59 -71.5,29.59 l 270,1647.29 c 10.2,59.63 -6.3,113.72 -6.3,113.72 98.8,0 236.6,8.93 266.9,8.93 33.8,0 71.4,-29.03 71.4,-29.03 l 426.7,-1089.88 c 24.6,-60.75 42.6,-145.56 55,-222.8 15.2,80.86 34,167.81 52.1,219.3 l 367.3,1021.33 c 14.4,40.54 10.6,92.15 10.6,92.15 84.4,0 230.7,8.93 274.7,8.93 33.8,0 71.3,-29.03 71.3,-29.03 l 289.3,-1761.01"
         style="fill:#656263;fill-opacity:1;fill-rule:nonzero;stroke:none"
         transform="matrix(0.13333333,0,0,-0.13333333,0,965.22667)" />
      <path
         id="path15"
         d="M 17282,3863.4 V 2777.92 c 0,-408.79 -262.6,-716.64 -749.3,-716.64 -420.8,0 -687.4,265.83 -687.4,697.68 V 3883.5 c 85.2,0 229.3,9.38 272.8,9.38 33.9,0 71.4,-29.48 71.4,-29.48 V 2782.56 c 0,-276.56 154.3,-460.97 386.1,-460.97 254,0 395.9,203.94 395.9,483.67 V 3883.5 c 89.7,0 201,9.38 239.1,9.38 33.9,0 71.4,-29.48 71.4,-29.48"
         style="fill:#656263;fill-opacity:1;fill-rule:nonzero;stroke:none"
         transform="matrix(0.13333333,0,0,-0.13333333,0,965.22667)" />
      <path
         id="path16"
         d="m 19148.1,3863.29 v -1760.9 c -86,0 -200.8,-9.49 -252.7,-9.49 -33.9,0 -71.4,29.59 -71.4,29.59 l -778,1083.89 c -34.2,49.12 -76.5,147.48 -109.5,231.16 8.6,-80.62 17.2,-174.24 17.2,-223.37 V 2102.39 c -33.8,0 -201.3,-9.49 -239.5,-9.49 -33.8,0 -71.3,29.59 -71.3,29.59 v 1655.2 c 0,54.09 -13.6,105.81 -13.6,105.81 104.4,0 245,8.93 281.2,8.93 33.9,0 71.4,-29.14 71.4,-29.14 l 751.4,-995.92 c 49.6,-66.4 97.6,-168.04 137.2,-265.95 -17.6,110.45 -32.8,231.28 -32.8,319.47 v 962.61 c 78.7,0 243,8.93 239,8.93 33.9,0 71.4,-29.14 71.4,-29.14"
         style="fill:#656263;fill-opacity:1;fill-rule:nonzero;stroke:none"
         transform="matrix(0.13333333,0,0,-0.13333333,0,965.22667)" />
      <path
         id="path17"
         d="m 20525.9,3883.5 c 0,0 27.9,-37.49 27.9,-71.37 0,-29.14 -18.5,-121.63 -25.5,-189.26 h -688.6 v -489.11 h 598.1 l -18.8,-172.89 c -4.7,-42.68 -30.2,-69.33 -73.2,-69.33 h -506.1 v -528.63 h 704 c 0,0 27.8,-37.38 27.8,-71.36 0,-29.03 -18.5,-121.52 -25.5,-189.16 h -979.2 c -34,0 -71.4,29.02 -71.4,29.02 V 3883.5 h 1030.5"
         style="fill:#656263;fill-opacity:1;fill-rule:nonzero;stroke:none"
         transform="matrix(0.13333333,0,0,-0.13333333,0,965.22667)" />
    </g>
  </g>
</svg>
